<svg width="40" height="40" viewBox="0 0 40 40" fill="none" xmlns="http://www.w3.org/2000/svg">
<rect width="40" height="40" rx="20" fill="#F0EBFF"/>
<path d="M16.6719 20.0676C16.79 20.0172 16.9169 19.991 17.0452 19.9906C17.1735 19.9901 17.3006 20.0154 17.419 20.0649C17.5374 20.1144 17.6447 20.1871 17.7345 20.2788C17.8243 20.3705 17.8948 20.4792 17.9418 20.5986C17.9889 20.718 18.0115 20.8456 18.0084 20.9739C18.0053 21.1022 17.9765 21.2285 17.9237 21.3455C17.8709 21.4624 17.7952 21.5676 17.7011 21.6548C17.6069 21.742 17.4963 21.8095 17.3756 21.8532C16.7339 22.106 16.1831 22.5462 15.795 23.1163C15.4068 23.6865 15.1993 24.3603 15.1993 25.05V26.7204C15.1993 26.975 15.3004 27.2192 15.4805 27.3992C15.6605 27.5792 15.9047 27.6804 16.1593 27.6804H23.8393C24.0939 27.6804 24.3381 27.5792 24.5181 27.3992C24.6982 27.2192 24.7993 26.975 24.7993 26.7204V25.1393C24.7994 24.4274 24.5832 23.7323 24.1792 23.1461C23.7753 22.56 23.2028 22.1104 22.5375 21.857C22.4161 21.8149 22.3044 21.7488 22.209 21.6627C22.1136 21.5766 22.0365 21.4722 21.9822 21.3558C21.9279 21.2393 21.8975 21.1131 21.8929 20.9847C21.8883 20.8563 21.9095 20.7282 21.9552 20.6082C22.001 20.4881 22.0704 20.3784 22.1593 20.2857C22.2483 20.1929 22.3549 20.119 22.473 20.0682C22.591 20.0174 22.7181 19.9909 22.8466 19.9901C22.9751 19.9893 23.1024 20.0144 23.2211 20.0638C24.2498 20.4556 25.1352 21.1508 25.7599 22.0572C26.3846 22.9636 26.7192 24.0384 26.7193 25.1393V26.7204C26.7193 27.4842 26.4159 28.2168 25.8758 28.7569C25.3357 29.297 24.6031 29.6004 23.8393 29.6004H16.1593C15.3955 29.6004 14.6629 29.297 14.1228 28.7569C13.5827 28.2168 13.2793 27.4842 13.2793 26.7204V25.05C13.2794 23.9749 13.6031 22.9248 14.2082 22.0362C14.8132 21.1476 15.6717 20.4617 16.6719 20.0676ZM19.9993 10.4004C21.0177 10.4004 21.9944 10.805 22.7146 11.5251C23.4347 12.2452 23.8393 13.222 23.8393 14.2404V16.1604C23.8393 17.1788 23.4347 18.1555 22.7146 18.8757C21.9944 19.5958 21.0177 20.0004 19.9993 20.0004C18.9809 20.0004 18.0041 19.5958 17.284 18.8757C16.5639 18.1555 16.1593 17.1788 16.1593 16.1604V14.2404C16.1593 13.222 16.5639 12.2452 17.284 11.5251C18.0041 10.805 18.9809 10.4004 19.9993 10.4004ZM19.9993 12.3204C19.4901 12.3204 19.0017 12.5227 18.6417 12.8827C18.2816 13.2428 18.0793 13.7312 18.0793 14.2404V16.1604C18.0793 16.6696 18.2816 17.158 18.6417 17.518C19.0017 17.8781 19.4901 18.0804 19.9993 18.0804C20.5085 18.0804 20.9969 17.8781 21.3569 17.518C21.717 17.158 21.9193 16.6696 21.9193 16.1604V14.2404C21.9193 13.7312 21.717 13.2428 21.3569 12.8827C20.9969 12.5227 20.5085 12.3204 19.9993 12.3204Z" fill="#5F2FE8"/>
</svg>
